<svg xmlns="http://www.w3.org/2000/svg" viewBox="0 0 512 512">
  <defs>
    <linearGradient id="grad" x1="0%" y1="0%" x2="100%" y2="100%">
      <stop offset="0%" style="stop-color:#E11D48;stop-opacity:1" />
      <stop offset="100%" style="stop-color:#BE123C;stop-opacity:1" />
    </linearGradient>
    <filter id="shadow" x="-20%" y="-20%" width="140%" height="140%">
      <feDropShadow dx="0" dy="4" stdDeviation="8" flood-color="rgba(0,0,0,0.2)"/>
    </filter>
  </defs>
  
  <!-- Background: Rounded Square (iOS Style) -->
  <rect width="512" height="512" rx="115" fill="url(#grad)" />
  
  <!-- Flame Icon (White) -->
  <g transform="translate(106, 106) scale(12.5)" fill="none" stroke="white" stroke-width="1.5" stroke-linecap="round" stroke-linejoin="round">
    <path d="M8.5 14.5A2.5 2.5 0 0 0 11 12c0-1.38-.5-2-1-3-1.072-2.143-.224-4.054 2-6 .5 2.5 2 4.9 4 6.5 2 1.6 3 3.5 3 5.5a7 7 0 1 1-14 0c0-1.1.2-2.2.6-3.3.7-1.9 2.5-2.1 2.9-4.7 1 2 2 3 2 5.5z" fill="white" stroke="none"/>
  </g>
</svg>